<?xml version="1.0" encoding="utf-8"?>
<!-- Generator: Adobe Illustrator 26.1.0, SVG Export Plug-In . SVG Version: 6.00 Build 0)  -->
<svg version="1.1" id="Layer_1" xmlns="http://www.w3.org/2000/svg" xmlns:xlink="http://www.w3.org/1999/xlink" x="0px" y="0px"
	 viewBox="0 0 400 200" style="enable-background:new 0 0 400 200;" xml:space="preserve">
<style type="text/css">
	.st0{display:none;}
	
		.st1{display:inline;fill:none;stroke:#000000;stroke-width:9;stroke-linecap:round;stroke-linejoin:round;stroke-miterlimit:12.5082;stroke-opacity:0.5233;}
	.st2{fill:none;stroke:#000000;stroke-width:9;stroke-linecap:round;stroke-linejoin:round;stroke-opacity:0.5174;}
</style>
<g id="Layer_1_00000163056228485596269190000001833121745732400008_" class="st0">
	<path id="path2220" class="st1" d="M87.13,30.22c7.52,4.19,15.07,7.52,23.59,5.44c20.57,1.62,41.48,1.95,62.08,0
		c9.19-0.5,18.39-0.35,27.59-0.73c18.42-1.8,36.57,1.7,54.45,5.81c57.68,17.25,60.68,48.64,90.03,93.65
		c2.31,3.48,5.14,6.75,8.35,9.44c6.89,7.21,21.63,6.09,21.78,15.61c0,2.04-1.99,2.91-3.99,2.91c-2.13,0-4.42-0.58-6.17-1.45
		c-4.61-3.01-10-4.33-14.88-6.9c-6.39-4.83-12.65-10.2-16.34-17.43c-13.98-21.18-26.04-61.25-51.91-66.8
		c-4.16,18.15,0.01,38.42,8.71,54.81c1.56,3.41,4.27,4.71,7.26,6.53c2.78,2.81,2.27,6.96,2.91,10.53
		c3.55,11.19,7.33,22.3,5.44,34.12c-3.88,13.8-25.7,4.44-14.16-2.91c5.15,1.51,4.09-7.79,3.63-11.25
		c-1.13-12.41-8.32-15.94-19.24-19.96c-7.69-3.75-16.75-5.68-22.14-12.71c-6.55-0.33-2.09,17.7-0.73,22.87
		c0.88,7.56-3.71,12.38-8.71,17.06c-9.43,9.62-19.22,21.41-34.12,18.51c-2.66-0.66-3.21-1.81-5.81-1.81
		c-3.2-3.84-0.57-8.19,2.91-10.53c4.38,0.12,6.89,2.31,11.25,0.36c3.66-1.62,6.08-4.78,8.71-7.63c2.27-2.6,3.94-5.35,4.72-8.71
		c-4.84-12.71-16.69-20.37-21.78-33.03c-6.57-5.15-19.41-6.01-28.31-7.63c-8.12,2.82-24.77-5.57-30.86-0.36
		c-4.57,5.69-4.98,13.97-5.81,21.06c-0.18,9.27,1.31,19.21-3.27,27.59c1.61,10.17-18.72,15.12-21.06,5.81
		c0.02-4.04,5.16-4.01,7.99-5.08c5.23-3.25,2.68-11.3,2.54-16.7c-0.7-7.83-1.83-15.89-3.63-23.59
		c-7.03,5.66-15.35,14.51-18.51,23.23c-2.38,7.72-10.03,12.24-15.97,17.06c-4.75,4-7.18,8.59-9.08,14.16
		c-8.94,0.35-14.85,0.58-22.87-2.54c-1.97-3.15,1.27-7.31,3.99-8.71c4.31-0.01,7.25,0.11,10.89-2.54
		c5.84-8.3,9.37-18.37,13.79-27.59c3.17-7.79,6.89-15.3,10.53-22.87c1.66-15.37-20.74-17.23-24.32-30.13
		c-1.9-5.15-3.59-10.8-6.9-15.24c-5.93,0.51-11.54,3.82-17.06,6.17c-4.94,1.67-9.12-1.78-11.98-5.44
		c-6.29-6.75-9.15-17.01-9.08-26.14c-0.37-5.55,2.44-11.59,3.27-16.34c0-2.01-2.05-3.82-2.54-5.81c-2.37-3.45-4.51-7.32-7.26-10.53
		c-1.41-5.68,22.18,4.58,24.32,5.81c3.87,1.49,7.79,2.83,11.98,2.91c4.2-0.16,8.29-1.67,11.98-3.63c2.64-2.59,5.38-4.57,8.71-6.17
		C90.84,14.01,88.57,23.82,87.13,30.22L87.13,30.22z"/>
</g>
<g id="Layer_2_00000080916543487908225890000005981020591543324827_">
	<g id="g3351" transform="translate(-114.99997,-3.576262)">
		<path id="path7640" class="st2" d="M303.4,29.54c-8.05-0.14-20.79,2.09-24.59,3.56c-4.34,1.67-7.68,2.33-13.36,3.33
			c-5.6,0.99-27.43,11.73-41.8,18.43l-0.07-0.13c0,0-21.71,5.92-28.55,8.75c-6.85,2.83-12.76,9.67-14.41,11.32
			c-1.65,1.65-6.37,4.48-12.04,8.5s-7.79,11.33-9.92,12.27c-2.12,0.94-12.98,8.03-13.92,9.92s-4.96,6.84-4.72,10.38
			c0.24,3.54,4.73,4.49,7.56,4.49s11.56,0,17.23,0s2.36,2.13,5.66,6.14s11.28,7.66,14.28,9.67c2.57,1.72,0.73,19.15,3.99,19.31
			c8.59,1.37,22.62-14.44,30.6-18.59c3.02-1.86,4.72-7.78,4.72-10.62s9.19-3.07,8.25,0s-6.37,6.61-12.5,12.27s-7.73,6.31-10.56,8.91
			s-4.42,5.4-5.02,8.86c-1.17,9.16-0.56,21.15,6.68,27.44c2.36,2.36,8.66,1.99,12.43,1.52c3.78-0.47,3.3-13.45,3.3-15.81
			s2.13-4.96,4.49-9.68c2.35-4.71,27.61-27.31,33.16-32.13c7.07,1.49,8.03,2.94,14.67,2.94c6.68,0,9.18-2.68,11.69-3.35
			c2.5-0.67,1.16-4.84,1-7.68c-0.17-2.84,0.02-2.5,3.69-2.5s79.11-11.35,92.29-14.19c13.19-2.84,28.97-3.17,31.39-1.17
			s15.18,4.93,18.85,4.84c3.67-0.08,9.51,2.6,11.85,2.52s8.68,4.75,13.6,6.42s14.81,2.3,17.03,2.63c2.21,0.33,4-1.27,4.55-1.39
			c1.55-1.93,2.05-0.91,3.3-2.06c0.96,0.17,1.8-3.9,1.8-5.32c-1.22-2.98-2.1-4.58-3.56-6.47c-1.67-3-18.03-13.68-27.04-19.69
			c-9.01-6.01-32.05-18.37-38.06-21.71s-36.04-20.03-43.72-22.36c-7.68-2.34-41.4-10.34-47.74-6.67s-16.03-1.67-23.37-2.68
			C305.6,29.64,304.55,29.56,303.4,29.54L303.4,29.54z"/>
		<path id="path7638" class="st2" d="M478.61,96.13c-8.68,0.33-9.84,1.73-16.85-1.61s-11.35-7.35-17.03-7.35s-16.02-3-26.04-4.68
			c-10.01-1.67-22.7-3-22.7-3"/>
		<path id="path7642" class="st2" d="M263.54,127.45c-7.18-1.5-13.77,1.96-17.78-5.21s-6.18-9.01-6.18-14.02
			c0-5.01-0.5-7.51-0.5-13.52s0-9.85,0-9.85"/>
		<path id="path7644" class="st2" d="M195.8,84.52c5.37,5.74,28.5,17.23,30.01,18.67c2.29,2.18,6.16,10.33,4.27,13.4
			c-1.89,3.07-5.97,8.96-5.97,8.96"/>
		<path id="path7646" class="st2" d="M252.77,60.47c12.35,0.67,19.03-0.67,19.03,5.34s2.67,24.37,0.33,27.04s-8.35,11.02-5.68,11.68
			c2.67,0.67,12.35,1,16.02,4.34c1.45,1.54,2.91,1.91,4.6,2.98c1.18,0.71,4.48,1.89,4.48,3.78s0.24,3.78,0.24,3.78"/>
	</g>
</g>
</svg>
