<?xml version="1.0" encoding="utf-8"?>
<!-- Generator: Adobe Illustrator 26.1.0, SVG Export Plug-In . SVG Version: 6.00 Build 0)  -->
<svg version="1.1" id="Layer_1" xmlns="http://www.w3.org/2000/svg" xmlns:xlink="http://www.w3.org/1999/xlink" x="0px" y="0px"
	 viewBox="0 0 400 200" style="enable-background:new 0 0 400 200;" xml:space="preserve">
<style type="text/css">
	.st0{display:none;}
	
		.st1{display:inline;fill:none;stroke:#000000;stroke-width:9;stroke-linecap:round;stroke-linejoin:round;stroke-miterlimit:12.5082;stroke-opacity:0.5233;}
	
		.st2{fill:none;stroke:#000000;stroke-width:9;stroke-linecap:round;stroke-linejoin:round;stroke-miterlimit:12.5082;stroke-opacity:0.5233;}
</style>
<g id="Layer_1_00000106117950100565807390000000515484787885328294_" class="st0">
	<path id="path2220" class="st1" d="M87.13,33.22c7.52,4.19,15.07,7.52,23.59,5.44c20.57,1.62,41.48,1.95,62.08,0
		c9.19-0.5,18.39-0.35,27.59-0.73c18.42-1.8,36.57,1.7,54.45,5.81c57.68,17.25,60.68,48.64,90.03,93.65
		c2.31,3.48,5.14,6.75,8.35,9.44c6.89,7.21,21.63,6.09,21.78,15.61c0,2.04-1.99,2.91-3.99,2.91c-2.13,0-4.42-0.58-6.17-1.45
		c-4.61-3.01-10-4.33-14.88-6.9c-6.39-4.83-12.65-10.2-16.34-17.43c-13.98-21.18-26.04-61.25-51.91-66.8
		c-4.16,18.15,0.01,38.42,8.71,54.81c1.56,3.41,4.27,4.71,7.26,6.53c2.78,2.81,2.27,6.96,2.91,10.53
		c3.55,11.19,7.33,22.3,5.44,34.12c-3.88,13.8-25.7,4.44-14.16-2.91c5.15,1.51,4.09-7.79,3.63-11.25
		c-1.13-12.41-8.32-15.94-19.24-19.96c-7.69-3.75-16.75-5.68-22.14-12.71c-6.55-0.33-2.09,17.7-0.73,22.87
		c0.88,7.56-3.71,12.38-8.71,17.06c-9.43,9.62-19.22,21.41-34.12,18.51c-2.66-0.66-3.21-1.81-5.81-1.81
		c-3.2-3.84-0.57-8.19,2.91-10.53c4.38,0.12,6.89,2.31,11.25,0.36c3.66-1.62,6.08-4.78,8.71-7.63c2.27-2.6,3.94-5.35,4.72-8.71
		c-4.84-12.71-16.69-20.37-21.78-33.03c-6.57-5.15-19.41-6.01-28.31-7.63c-8.12,2.82-24.77-5.57-30.86-0.36
		c-4.57,5.69-4.98,13.97-5.81,21.06c-0.18,9.27,1.31,19.21-3.27,27.59c1.61,10.17-18.72,15.12-21.06,5.81
		c0.02-4.04,5.16-4.01,7.99-5.08c5.23-3.25,2.68-11.3,2.54-16.7c-0.7-7.83-1.83-15.89-3.63-23.59
		c-7.03,5.66-15.35,14.51-18.51,23.23c-2.38,7.72-10.03,12.24-15.97,17.06c-4.75,4-7.18,8.59-9.08,14.16
		c-8.94,0.35-14.85,0.58-22.87-2.54c-1.97-3.15,1.27-7.31,3.99-8.71c4.31-0.01,7.25,0.11,10.89-2.54
		c5.84-8.3,9.37-18.37,13.79-27.59c3.17-7.79,6.89-15.3,10.53-22.87c1.66-15.37-20.74-17.23-24.32-30.13
		c-1.9-5.15-3.59-10.8-6.9-15.24c-5.93,0.51-11.54,3.82-17.06,6.17c-4.94,1.67-9.12-1.78-11.98-5.44
		c-6.29-6.75-9.15-17.01-9.08-26.14c-0.37-5.55,2.44-11.59,3.27-16.34c0-2.01-2.05-3.82-2.54-5.81c-2.37-3.45-4.51-7.32-7.26-10.53
		c-1.41-5.68,22.18,4.58,24.32,5.81c3.87,1.49,7.79,2.83,11.98,2.91c4.2-0.16,8.29-1.67,11.98-3.63c2.64-2.59,5.38-4.57,8.71-6.17
		C90.84,17.01,88.57,26.82,87.13,33.22L87.13,33.22z"/>
</g>
<g id="Layer_2_00000066512290742958550530000017974971102186443444_">
	<path id="path2220_00000054265592478264538780000008587502540994178209_" class="st2" d="M86.65,33.58
		c7.52,4.19,15.07,7.52,23.59,5.44c20.57,1.62,41.48,1.95,62.08,0c9.19-0.5,18.39-0.35,27.59-0.73c18.42-1.8,36.57,1.7,54.45,5.81
		c57.68,17.25,60.68,48.64,90.03,93.65c2.31,3.48,5.14,6.75,8.35,9.44c6.89,7.21,21.63,6.09,21.78,15.61c0,2.04-1.99,2.91-3.99,2.91
		c-2.13,0-4.42-0.58-6.17-1.45c-4.61-3.01-10-4.33-14.88-6.9c-6.39-4.83-12.65-10.2-16.34-17.43
		c-13.98-21.18-26.04-61.25-51.91-66.8c-4.16,18.15,0.01,38.42,8.71,54.81c1.56,3.41,4.27,4.71,7.26,6.53
		c2.78,2.81,2.27,6.96,2.91,10.53c3.55,11.19,7.33,22.3,5.44,34.12c-3.88,13.8-25.7,4.44-14.16-2.91c5.15,1.51,4.09-7.79,3.63-11.25
		c-1.13-12.41-8.32-15.94-19.24-19.96c-7.69-3.75-16.75-5.68-22.14-12.71c-6.55-0.33-2.09,17.7-0.73,22.87
		c0.88,7.56-3.71,12.38-8.71,17.06c-9.43,9.62-19.22,21.41-34.12,18.51c-2.66-0.66-3.21-1.81-5.81-1.81
		c-3.2-3.84-0.57-8.19,2.91-10.53c4.38,0.12,6.89,2.31,11.25,0.36c3.66-1.62,6.08-4.78,8.71-7.63c2.27-2.6,3.94-5.35,4.72-8.71
		c-4.84-12.71-16.69-20.37-21.78-33.03c-6.57-5.15-19.41-6.01-28.31-7.63c-8.12,2.82-24.77-5.57-30.86-0.36
		c-4.57,5.69-4.98,13.97-5.81,21.06c-0.18,9.27,1.31,19.21-3.27,27.59c1.61,10.17-18.72,15.12-21.06,5.81
		c0.02-4.04,5.16-4.01,7.99-5.08c5.23-3.25,2.68-11.3,2.54-16.7c-0.7-7.83-1.83-15.89-3.63-23.59
		c-7.03,5.66-15.35,14.51-18.51,23.23c-2.38,7.72-10.03,12.24-15.97,17.06c-4.75,4.01-7.18,8.59-9.08,14.16
		c-8.94,0.35-14.85,0.58-22.87-2.54c-1.97-3.15,1.27-7.31,3.99-8.71c4.31-0.01,7.25,0.11,10.89-2.54
		c5.84-8.3,9.37-18.37,13.79-27.59c3.17-7.79,6.89-15.3,10.53-22.87c1.66-15.37-20.74-17.23-24.32-30.13
		c-1.9-5.15-3.59-10.8-6.9-15.24c-5.93,0.51-11.54,3.82-17.06,6.17c-4.94,1.67-9.12-1.78-11.98-5.44
		c-6.29-6.75-9.15-17.01-9.08-26.14c-0.37-5.55,2.44-11.59,3.27-16.34c0-2.01-2.05-3.82-2.54-5.81c-2.37-3.45-4.51-7.32-7.26-10.53
		c-1.41-5.68,22.18,4.58,24.32,5.81c3.87,1.49,7.79,2.83,11.98,2.91c4.2-0.16,8.29-1.67,11.98-3.63c2.64-2.59,5.38-4.57,8.71-6.17
		C90.36,17.37,88.1,27.18,86.65,33.58L86.65,33.58z"/>
</g>
</svg>
