<?xml version="1.0" encoding="utf-8"?>
<!-- Generator: Adobe Illustrator 26.1.0, SVG Export Plug-In . SVG Version: 6.00 Build 0)  -->
<svg version="1.1" id="Layer_1" xmlns="http://www.w3.org/2000/svg" xmlns:xlink="http://www.w3.org/1999/xlink" x="0px" y="0px"
	 viewBox="0 0 400 400" style="enable-background:new 0 0 400 400;" xml:space="preserve">
<style type="text/css">
	
		.st0{fill-rule:evenodd;clip-rule:evenodd;fill:none;stroke:#000000;stroke-width:9;stroke-linecap:round;stroke-linejoin:round;stroke-miterlimit:12.5082;stroke-opacity:0.5233;}
</style>
<g id="g4236" transform="matrix(1.7683466,0,0,1.7683466,-125.6029,63.85802)">
	<path id="path2220" class="st0" d="M120.3,37.53c4.25,2.37,8.52,4.26,13.34,3.08c11.63,0.92,23.46,1.1,35.1,0
		c5.2-0.28,10.4-0.2,15.6-0.41c10.42-1.02,20.68,0.96,30.79,3.28c32.62,9.76,34.31,27.51,50.91,52.96c1.31,1.97,2.91,3.82,4.72,5.34
		c3.9,4.08,12.23,3.44,12.32,8.83c0,1.15-1.13,1.64-2.26,1.64c-1.2,0-2.5-0.33-3.49-0.82c-2.61-1.7-5.66-2.45-8.42-3.9
		c-3.61-2.73-7.15-5.77-9.24-9.85c-7.91-11.98-14.73-34.63-29.35-37.77c-2.35,10.26,0.01,21.72,4.93,31
		c0.88,1.93,2.41,2.66,4.11,3.69c1.57,1.59,1.28,3.93,1.64,5.95c2.01,6.33,4.14,12.61,3.08,19.3c-2.2,7.8-14.54,2.51-8.01-1.64
		c2.91,0.85,2.31-4.4,2.05-6.36c-0.64-7.02-4.7-9.02-10.88-11.29c-4.35-2.12-9.47-3.21-12.52-7.19c-3.7-0.19-1.18,10.01-0.41,12.93
		c0.5,4.27-2.1,7-4.93,9.65c-5.33,5.44-10.87,12.11-19.3,10.47c-1.5-0.38-1.81-1.03-3.28-1.03c-1.81-2.17-0.32-4.63,1.64-5.95
		c2.48,0.07,3.9,1.31,6.36,0.21c2.07-0.91,3.44-2.7,4.93-4.31c1.28-1.47,2.23-3.03,2.67-4.93c-2.74-7.19-9.44-11.52-12.32-18.68
		c-3.71-2.91-10.97-3.4-16.01-4.31c-4.59,1.6-14.01-3.15-17.45-0.21c-2.59,3.22-2.82,7.9-3.28,11.91c-0.1,5.24,0.74,10.86-1.85,15.6
		c0.91,5.75-10.59,8.55-11.91,3.28c0.01-2.28,2.92-2.27,4.52-2.87c2.96-1.84,1.52-6.39,1.44-9.44c-0.39-4.43-1.03-8.99-2.05-13.34
		c-3.98,3.2-8.68,8.21-10.47,13.14c-1.34,4.37-5.67,6.92-9.03,9.65c-2.68,2.26-4.06,4.86-5.13,8.01c-5.06,0.2-8.4,0.33-12.93-1.44
		c-1.11-1.78,0.72-4.14,2.26-4.93c2.44,0,4.1,0.06,6.16-1.44c3.3-4.69,5.3-10.39,7.8-15.6c1.79-4.4,3.9-8.65,5.95-12.93
		c0.94-8.69-11.73-9.74-13.75-17.04c-1.07-2.91-2.03-6.11-3.9-8.62c-3.35,0.29-6.53,2.16-9.65,3.49c-2.79,0.95-5.16-1.01-6.78-3.08
		c-3.55-3.82-5.18-9.62-5.13-14.78c-0.21-3.14,1.38-6.55,1.85-9.24c0-1.14-1.16-2.16-1.44-3.28c-1.34-1.95-2.55-4.14-4.11-5.95
		c-0.79-3.21,12.54,2.59,13.75,3.28c2.19,0.85,4.41,1.6,6.78,1.64c2.38-0.09,4.69-0.95,6.78-2.05c1.49-1.47,3.04-2.59,4.93-3.49
		C122.4,28.36,121.12,33.91,120.3,37.53L120.3,37.53z"/>
	<path id="path3236" class="st0" d="M129,75.31c-0.89,0.97-1.87,2.53-1.89,4.36c0.3,1.74,1.3,3.26,1.02,5.08"/>
	<path id="path3238" class="st0" d="M151.32,81.26c-1.29,4.19-4.5,7.66-7.59,10.73c-0.08,0.08-0.1,0.19-0.15,0.29 M157.21,86.77
		c-2.82,0.61-5.56-0.73-8.37-0.29"/>
	<path id="path3240" class="st0" d="M189.11,83.07c-1.13,1.89,0.14,6.03,0.73,8.13c0.06,0.26,0.24,0.49,0.29,0.58"/>
	<path id="path3242" class="st0" d="M229.46,70.64c-3.64,9.12-11.45,15.5-16.33,23.82"/>
	<path id="path3244" class="st0" d="M140.33,119.11c-0.25,0.5,0.32-1.32,0.87-1.45c0.38-0.09,0.81-0.06,1.16-0.15"/>
	<path id="path3246" class="st0" d="M142.07,120.42c0.23-0.06,0.62-1.26,1.6-1.45c0.14-0.03,0.29,0,0.44,0"/>
	<path id="path3248" class="st0" d="M186.16,123.79c0.64-0.13,0.58-1.16,0.87-1.74c0.18-0.36,1.34-0.44,1.89-0.58"/>
	<path id="path3250" class="st0" d="M188.33,125.64c0.81-0.2,0.79-1.53,1.45-2.03c0.49-0.37,1.09-0.74,1.6-0.87
		c0.1-0.03,0.19,0.1,0.29,0.15"/>
	<path id="path3252" class="st0" d="M234.31,121.29c0.05-0.01,0.5-1.1,1.31-1.31c0.43-0.11,0.86-0.15,1.31-0.15"/>
	<path id="path3254" class="st0" d="M235.18,122.52c0.51-0.13,0.75-1.16,2.03-1.16c0.15,0,0.29,0.1,0.44,0.15"/>
	<path id="path3256" class="st0" d="M106.39,121.8c0.76,0,0.92-1.21,1.45-1.74c0.5-0.5,1.65-0.29,2.32-0.29"/>
	<path id="path3258" class="st0" d="M110.31,122.88c0.69,0,0.82-1.11,1.31-1.6c0.51-0.51,1.17-0.44,1.89-0.44"/>
	<path id="path3262" class="st0" d="M110.45,61.13c1.7-0.53,3.26-1.42,4.79-2.32"/>
	<path id="path3264" class="st0" d="M119.84,41.08c-0.06-1.26-0.05-2.34,0.44-3.48"/>
</g>
</svg>
